<mxfile host="app.diagrams.net" modified="2021-03-19T20:21:10.717Z" agent="5.0 (Windows NT 10.0; Win64; x64) AppleWebKit/537.36 (KHTML, like Gecko) Chrome/89.0.4389.90 Safari/537.36" etag="Op0-lnJTZKmAjGvwWUZC" version="14.4.9" type="github" pages="3">
  <diagram id="H8R2GNM9iak2mDNmFYrU" name="Page-1">
    <mxGraphModel dx="1038" dy="2780" grid="1" gridSize="10" guides="1" tooltips="1" connect="1" arrows="1" fold="1" page="1" pageScale="1" pageWidth="850" pageHeight="1100" math="0" shadow="0">
      <root>
        <mxCell id="0" />
        <mxCell id="1" parent="0" />
        <object placeholders="1" c4Name="Log In Button " c4Type="Container" c4Technology="JAVA" c4Description="The log-in button the costumer will use" label="&lt;b&gt;%c4Name%&lt;/b&gt;&lt;div&gt;[%c4Type%: %c4Technology%]&lt;/div&gt;&lt;br&gt;&lt;div&gt;%c4Description%&lt;/div&gt;" id="CRWafG1QDL7Ib-p2LC0e-1">
          <mxCell style="rounded=1;whiteSpace=wrap;html=1;labelBackgroundColor=none;fillColor=#438DD5;fontColor=#ffffff;align=center;arcSize=10;strokeColor=#3C7FC0;metaEdit=1;metaData={&quot;c4Type&quot;:{&quot;editable&quot;:false}};points=[[0.25,0,0],[0.5,0,0],[0.75,0,0],[1,0.25,0],[1,0.5,0],[1,0.75,0],[0.75,1,0],[0.5,1,0],[0.25,1,0],[0,0.75,0],[0,0.5,0],[0,0.25,0]];" parent="1" vertex="1">
            <mxGeometry x="290" y="-1860" width="160" height="100" as="geometry" />
          </mxCell>
        </object>
        <mxCell id="CRWafG1QDL7Ib-p2LC0e-3" value="" style="endArrow=classic;html=1;exitX=0.444;exitY=1.01;exitDx=0;exitDy=0;exitPerimeter=0;entryX=0.5;entryY=0;entryDx=0;entryDy=0;entryPerimeter=0;" parent="1" source="CRWafG1QDL7Ib-p2LC0e-1" target="CRWafG1QDL7Ib-p2LC0e-14" edge="1">
          <mxGeometry width="50" height="50" relative="1" as="geometry">
            <mxPoint x="400" y="-1570" as="sourcePoint" />
            <mxPoint x="363.03999999999996" y="-1702.07" as="targetPoint" />
          </mxGeometry>
        </mxCell>
        <mxCell id="CRWafG1QDL7Ib-p2LC0e-4" value="The front-end send the information to the back-end" style="text;html=1;align=center;verticalAlign=middle;resizable=0;points=[];autosize=1;" parent="1" vertex="1">
          <mxGeometry x="70" y="-1730" width="290" height="20" as="geometry" />
        </mxCell>
        <object placeholders="1" c4Type="Database" c4Technology="Technology" c4Description="Local Database" label="%c4Type%&lt;div&gt;[Container:&amp;nbsp;%c4Technology%]&lt;/div&gt;&lt;br&gt;&lt;div&gt;%c4Description%&lt;/div&gt;" id="CRWafG1QDL7Ib-p2LC0e-5">
          <mxCell style="shape=cylinder;whiteSpace=wrap;html=1;boundedLbl=1;rounded=0;labelBackgroundColor=none;fillColor=#438DD5;fontSize=12;fontColor=#ffffff;align=center;strokeColor=#3C7FC0;metaEdit=1;points=[[0.5,0,0],[1,0.25,0],[1,0.5,0],[1,0.75,0],[0.5,1,0],[0,0.75,0],[0,0.5,0],[0,0.25,0]];metaData={&quot;c4Type&quot;:{&quot;editable&quot;:false}};" parent="1" vertex="1">
            <mxGeometry x="640" y="-1685" width="160" height="140" as="geometry" />
          </mxCell>
        </object>
        <object placeholders="1" c4Name="3rd API" c4Type="Software System" c4Description="The API of existing messenger platforms" label="&lt;b&gt;%c4Name%&lt;/b&gt;&lt;div&gt;[%c4Type%]&lt;/div&gt;&lt;br&gt;&lt;div&gt;%c4Description%&lt;/div&gt;" id="CRWafG1QDL7Ib-p2LC0e-6">
          <mxCell style="rounded=1;whiteSpace=wrap;html=1;labelBackgroundColor=none;fillColor=#1168BD;fontColor=#ffffff;align=center;arcSize=10;strokeColor=#1168BD;metaEdit=1;metaData={&quot;c4Type&quot;:{&quot;editable&quot;:false}};points=[[0.25,0,0],[0.5,0,0],[0.75,0,0],[1,0.25,0],[1,0.5,0],[1,0.75,0],[0.75,1,0],[0.5,1,0],[0.25,1,0],[0,0.75,0],[0,0.5,0],[0,0.25,0]];" parent="1" vertex="1">
            <mxGeometry x="280" y="-1500" width="160" height="100" as="geometry" />
          </mxCell>
        </object>
        <mxCell id="CRWafG1QDL7Ib-p2LC0e-11" value="" style="endArrow=classic;html=1;exitX=1;exitY=0.5;exitDx=0;exitDy=0;entryX=0;entryY=0.5;entryDx=0;entryDy=0;entryPerimeter=0;exitPerimeter=0;" parent="1" source="CRWafG1QDL7Ib-p2LC0e-14" target="CRWafG1QDL7Ib-p2LC0e-5" edge="1">
          <mxGeometry width="50" height="50" relative="1" as="geometry">
            <mxPoint x="550" y="-1585" as="sourcePoint" />
            <mxPoint x="450" y="-1620" as="targetPoint" />
          </mxGeometry>
        </mxCell>
        <object placeholders="1" c4Name="API Local Verification" c4Type="Software System" c4Description="We manage the response from the 3rd API" label="&lt;b&gt;%c4Name%&lt;/b&gt;&lt;div&gt;[%c4Type%]&lt;/div&gt;&lt;br&gt;&lt;div&gt;%c4Description%&lt;/div&gt;" id="CRWafG1QDL7Ib-p2LC0e-14">
          <mxCell style="rounded=1;whiteSpace=wrap;html=1;labelBackgroundColor=none;fillColor=#1168BD;fontColor=#ffffff;align=center;arcSize=10;strokeColor=#1168BD;metaEdit=1;metaData={&quot;c4Type&quot;:{&quot;editable&quot;:false}};points=[[0.25,0,0],[0.5,0,0],[0.75,0,0],[1,0.25,0],[1,0.5,0],[1,0.75,0],[0.75,1,0],[0.5,1,0],[0.25,1,0],[0,0.75,0],[0,0.5,0],[0,0.25,0]];" parent="1" vertex="1">
            <mxGeometry x="280" y="-1670" width="160" height="110.00000000000001" as="geometry" />
          </mxCell>
        </object>
        <mxCell id="CRWafG1QDL7Ib-p2LC0e-15" value="" style="endArrow=classic;startArrow=classic;html=1;exitX=0.5;exitY=1;exitDx=0;exitDy=0;entryX=0.5;entryY=0;entryDx=0;entryDy=0;entryPerimeter=0;exitPerimeter=0;" parent="1" source="CRWafG1QDL7Ib-p2LC0e-14" target="CRWafG1QDL7Ib-p2LC0e-6" edge="1">
          <mxGeometry width="50" height="50" relative="1" as="geometry">
            <mxPoint x="345" y="-1470" as="sourcePoint" />
            <mxPoint x="450" y="-1620" as="targetPoint" />
          </mxGeometry>
        </mxCell>
        <mxCell id="CRWafG1QDL7Ib-p2LC0e-17" value="" style="endArrow=classic;startArrow=classic;html=1;entryX=1;entryY=0.5;entryDx=0;entryDy=0;entryPerimeter=0;exitX=0;exitY=0.5;exitDx=0;exitDy=0;exitPerimeter=0;" parent="1" source="CRWafG1QDL7Ib-p2LC0e-5" target="CRWafG1QDL7Ib-p2LC0e-14" edge="1">
          <mxGeometry width="50" height="50" relative="1" as="geometry">
            <mxPoint x="400" y="-1570" as="sourcePoint" />
            <mxPoint x="450" y="-1620" as="targetPoint" />
          </mxGeometry>
        </mxCell>
        <mxCell id="CRWafG1QDL7Ib-p2LC0e-21" value="" style="endArrow=classic;startArrow=classic;html=1;exitX=0.5;exitY=0;exitDx=0;exitDy=0;exitPerimeter=0;entryX=0.438;entryY=0.99;entryDx=0;entryDy=0;entryPerimeter=0;" parent="1" source="CRWafG1QDL7Ib-p2LC0e-14" target="CRWafG1QDL7Ib-p2LC0e-1" edge="1">
          <mxGeometry width="50" height="50" relative="1" as="geometry">
            <mxPoint x="400" y="-1570" as="sourcePoint" />
            <mxPoint x="450" y="-1620" as="targetPoint" />
          </mxGeometry>
        </mxCell>
        <mxCell id="CRWafG1QDL7Ib-p2LC0e-22" value="Login Succesful/Failed" style="text;html=1;strokeColor=none;fillColor=none;align=center;verticalAlign=middle;whiteSpace=wrap;rounded=0;" parent="1" vertex="1">
          <mxGeometry x="370" y="-1730" width="130" height="20" as="geometry" />
        </mxCell>
        <mxCell id="CRWafG1QDL7Ib-p2LC0e-23" value="Call the API and receive a response" style="text;html=1;align=center;verticalAlign=middle;resizable=0;points=[];autosize=1;" parent="1" vertex="1">
          <mxGeometry x="150" y="-1540" width="210" height="20" as="geometry" />
        </mxCell>
        <mxCell id="CRWafG1QDL7Ib-p2LC0e-24" value="Writes locally our login information" style="text;html=1;align=center;verticalAlign=middle;resizable=0;points=[];autosize=1;" parent="1" vertex="1">
          <mxGeometry x="440" y="-1600" width="200" height="20" as="geometry" />
        </mxCell>
      </root>
    </mxGraphModel>
  </diagram>
  <diagram id="tDElL4wLqLOTm-xsZLmG" name="Page-2">
    <mxGraphModel dx="1038" dy="2918" grid="1" gridSize="10" guides="1" tooltips="1" connect="1" arrows="1" fold="1" page="1" pageScale="1" pageWidth="827" pageHeight="1169" math="0" shadow="0">
      <root>
        <mxCell id="MbP_VyGz2Ut3rkr8A8Uo-0" />
        <mxCell id="MbP_VyGz2Ut3rkr8A8Uo-1" parent="MbP_VyGz2Ut3rkr8A8Uo-0" />
        <object placeholders="1" c4Name="3rd API" c4Type="Software System" c4Description="The API of existing messenger platforms that will send us back the contact list " label="&lt;b&gt;%c4Name%&lt;/b&gt;&lt;div&gt;[%c4Type%]&lt;/div&gt;&lt;br&gt;&lt;div&gt;%c4Description%&lt;/div&gt;" id="Cmr2BP0v9fpxTyhfhCla-0">
          <mxCell style="rounded=1;whiteSpace=wrap;html=1;labelBackgroundColor=none;fillColor=#1168BD;fontColor=#ffffff;align=center;arcSize=10;strokeColor=#1168BD;metaEdit=1;metaData={&quot;c4Type&quot;:{&quot;editable&quot;:false}};points=[[0.25,0,0],[0.5,0,0],[0.75,0,0],[1,0.25,0],[1,0.5,0],[1,0.75,0],[0.75,1,0],[0.5,1,0],[0.25,1,0],[0,0.75,0],[0,0.5,0],[0,0.25,0]];" vertex="1" parent="MbP_VyGz2Ut3rkr8A8Uo-1">
            <mxGeometry x="280" y="-1480" width="160" height="100" as="geometry" />
          </mxCell>
        </object>
        <mxCell id="Cmr2BP0v9fpxTyhfhCla-1" value="" style="endArrow=classic;startArrow=classic;html=1;exitX=0.5;exitY=1;exitDx=0;exitDy=0;entryX=0.5;entryY=0;entryDx=0;entryDy=0;entryPerimeter=0;exitPerimeter=0;" edge="1" parent="MbP_VyGz2Ut3rkr8A8Uo-1" target="Cmr2BP0v9fpxTyhfhCla-0">
          <mxGeometry width="50" height="50" relative="1" as="geometry">
            <mxPoint x="360" y="-1560" as="sourcePoint" />
            <mxPoint x="450" y="-1620" as="targetPoint" />
          </mxGeometry>
        </mxCell>
        <mxCell id="Cmr2BP0v9fpxTyhfhCla-2" value="Call the API and receive a response" style="text;html=1;align=center;verticalAlign=middle;resizable=0;points=[];autosize=1;" vertex="1" parent="MbP_VyGz2Ut3rkr8A8Uo-1">
          <mxGeometry x="150" y="-1530" width="210" height="20" as="geometry" />
        </mxCell>
        <mxCell id="Cmr2BP0v9fpxTyhfhCla-3" value="The back-end will send the contact list back&lt;br&gt;" style="text;html=1;align=center;verticalAlign=middle;resizable=0;points=[];autosize=1;" vertex="1" parent="MbP_VyGz2Ut3rkr8A8Uo-1">
          <mxGeometry x="360" y="-1730" width="250" height="20" as="geometry" />
        </mxCell>
        <object placeholders="1" c4Name="Select Channel Button " c4Type="Container" c4Technology="JAVA" c4Description="The Select Channel button that will let the costumer choose the messaging platform" label="&lt;b&gt;%c4Name%&lt;/b&gt;&lt;div&gt;[%c4Type%: %c4Technology%]&lt;/div&gt;&lt;br&gt;&lt;div&gt;%c4Description%&lt;/div&gt;" id="Cmr2BP0v9fpxTyhfhCla-4">
          <mxCell style="rounded=1;whiteSpace=wrap;html=1;labelBackgroundColor=none;fillColor=#438DD5;fontColor=#ffffff;align=center;arcSize=10;strokeColor=#3C7FC0;metaEdit=1;metaData={&quot;c4Type&quot;:{&quot;editable&quot;:false}};points=[[0.25,0,0],[0.5,0,0],[0.75,0,0],[1,0.25,0],[1,0.5,0],[1,0.75,0],[0.75,1,0],[0.5,1,0],[0.25,1,0],[0,0.75,0],[0,0.5,0],[0,0.25,0]];" vertex="1" parent="MbP_VyGz2Ut3rkr8A8Uo-1">
            <mxGeometry x="290" y="-1860" width="160" height="100" as="geometry" />
          </mxCell>
        </object>
        <object placeholders="1" c4Name="API Request" c4Type="Software System" c4Description="We send a request to the API in seach of the contact list" label="&lt;b&gt;%c4Name%&lt;/b&gt;&lt;div&gt;[%c4Type%]&lt;/div&gt;&lt;br&gt;&lt;div&gt;%c4Description%&lt;/div&gt;" id="Cmr2BP0v9fpxTyhfhCla-5">
          <mxCell style="rounded=1;whiteSpace=wrap;html=1;labelBackgroundColor=none;fillColor=#1168BD;fontColor=#ffffff;align=center;arcSize=10;strokeColor=#1168BD;metaEdit=1;metaData={&quot;c4Type&quot;:{&quot;editable&quot;:false}};points=[[0.25,0,0],[0.5,0,0],[0.75,0,0],[1,0.25,0],[1,0.5,0],[1,0.75,0],[0.75,1,0],[0.5,1,0],[0.25,1,0],[0,0.75,0],[0,0.5,0],[0,0.25,0]];" vertex="1" parent="MbP_VyGz2Ut3rkr8A8Uo-1">
            <mxGeometry x="280" y="-1670" width="160" height="110.00000000000001" as="geometry" />
          </mxCell>
        </object>
        <mxCell id="Cmr2BP0v9fpxTyhfhCla-6" value="The front-end send the information to the back-end" style="text;html=1;align=center;verticalAlign=middle;resizable=0;points=[];autosize=1;" vertex="1" parent="MbP_VyGz2Ut3rkr8A8Uo-1">
          <mxGeometry x="70" y="-1730" width="290" height="20" as="geometry" />
        </mxCell>
      </root>
    </mxGraphModel>
  </diagram>
  <diagram id="YwoRlolcHvUX_s966v8S" name="Page-3">
    <mxGraphModel dx="1038" dy="580" grid="1" gridSize="10" guides="1" tooltips="1" connect="1" arrows="1" fold="1" page="1" pageScale="1" pageWidth="827" pageHeight="1169" math="0" shadow="0">
      <root>
        <mxCell id="Mv12rA3zL5ouDRcpI3Ts-0" />
        <mxCell id="Mv12rA3zL5ouDRcpI3Ts-1" parent="Mv12rA3zL5ouDRcpI3Ts-0" />
      </root>
    </mxGraphModel>
  </diagram>
</mxfile>
